HIERARCHY
ROOT joint_Root
{
	OFFSET 0.0 0.0 0.0
	CHANNELS 6 Xposition Yposition Zposition Zrotation Xrotation Yrotation 
	JOINT Hips
	{
		OFFSET 4.5925 91.4895 -427.239
		CHANNELS 6 Xposition Yposition Zposition Zrotation Xrotation Yrotation 
		JOINT Spine
		{
			OFFSET 15.7357 0.0 0.0
			CHANNELS 6 Xposition Yposition Zposition Zrotation Xrotation Yrotation 
			JOINT Chest
			{
				OFFSET 8.98455 -0.406207 0.0
				CHANNELS 6 Xposition Yposition Zposition Zrotation Xrotation Yrotation 
				JOINT Neck
				{
					OFFSET 16.3773 0.0 0.0
					CHANNELS 6 Xposition Yposition Zposition Zrotation Xrotation Yrotation 
					JOINT Head
					{
						OFFSET 6.45672 0.0 0.0
						CHANNELS 6 Xposition Yposition Zposition Zrotation Xrotation Yrotation 
						End Site
						{
							OFFSET 0.0 0.0 0.0
						}
					}
				}
				JOINT Shoulder_L
				{
					OFFSET 12.9942 -0.242716 4.98039
					CHANNELS 6 Xposition Yposition Zposition Zrotation Xrotation Yrotation 
					JOINT UpperArm_L
					{
						OFFSET 5.34809 0.0 0.0
						CHANNELS 6 Xposition Yposition Zposition Zrotation Xrotation Yrotation 
						JOINT LowerArm_L
						{
							OFFSET 24.3286 1.87007e-05 0.0
							CHANNELS 6 Xposition Yposition Zposition Zrotation Xrotation Yrotation 
							JOINT Hand_L
							{
								OFFSET 22.2916 0.0 0.0
								CHANNELS 6 Xposition Yposition Zposition Zrotation Xrotation Yrotation 
								End Site
								{
									OFFSET 0.0 0.0 0.0
								}
							}
						}
					}
				}
				JOINT Shoulder_R
				{
					OFFSET 12.9945 -0.242716 -4.98039
					CHANNELS 6 Xposition Yposition Zposition Zrotation Xrotation Yrotation 
					JOINT UpperArm_R
					{
						OFFSET -5.34813 0.0 0.0
						CHANNELS 6 Xposition Yposition Zposition Zrotation Xrotation Yrotation 
						JOINT LowerArm_R
						{
							OFFSET -24.3289 0.000322201 0.0
							CHANNELS 6 Xposition Yposition Zposition Zrotation Xrotation Yrotation 
							JOINT Hand_R
							{
								OFFSET -22.2915 -0.000108084 0.0
								CHANNELS 6 Xposition Yposition Zposition Zrotation Xrotation Yrotation 
								End Site
								{
									OFFSET 0.0 0.0 0.0
								}
							}
						}
					}
				}
			}
		}
		JOINT UpperLeg_L
		{
			OFFSET -2.19248 -6.46944 0.0
			CHANNELS 6 Xposition Yposition Zposition Zrotation Xrotation Yrotation 
			JOINT LowerLeg_L
			{
				OFFSET 39.0811 0.0 -1.23785e-05
				CHANNELS 6 Xposition Yposition Zposition Zrotation Xrotation Yrotation 
				JOINT Foot_L
				{
					OFFSET 40.9854 0.0 -1.26872e-05
					CHANNELS 6 Xposition Yposition Zposition Zrotation Xrotation Yrotation 
					JOINT Toes_L
					{
						OFFSET 11.7543 0.0 0.0
						CHANNELS 6 Xposition Yposition Zposition Zrotation Xrotation Yrotation 
						End Site
						{
							OFFSET 0.0 0.0 0.0
						}
					}
				}
			}
		}
		JOINT UpperLeg_R
		{
			OFFSET -2.19251 6.46944 0.0
			CHANNELS 6 Xposition Yposition Zposition Zrotation Xrotation Yrotation 
			JOINT LowerLeg_R
			{
				OFFSET -39.0811 -0.00228153 -0.0401928
				CHANNELS 6 Xposition Yposition Zposition Zrotation Xrotation Yrotation 
				JOINT Foot_R
				{
					OFFSET -40.9854 0.0 0.0
					CHANNELS 6 Xposition Yposition Zposition Zrotation Xrotation Yrotation 
					JOINT Toes_R
					{
						OFFSET -11.7543 0.0 0.0
						CHANNELS 6 Xposition Yposition Zposition Zrotation Xrotation Yrotation 
						End Site
						{
							OFFSET 0.0 0.0 0.0
						}
					}
				}
			}
		}
	}
}
MOTION
Frames:	4
Frame Time:	0.0333333
0.000000 0.000000 0.000000 0.000000 0.000000 -0.000000 137.877000 89.115400 12.755900 87.110300 3.145730 1.421540 15.735700 0.000005 -0.000001 86.495400 84.439000 -87.102500 8.984550 -0.406207 -0.000000 3.332140 -0.655609 -1.193820 16.377300 -0.000001 -0.000001 -1.703820 -7.993490 0.743055 6.456720 -0.000001 -0.000000 -6.190280 -10.339400 0.791914 12.994200 -0.242716 4.980390 -91.544900 4.943540 -72.622000 5.348090 -0.000007 -0.000001 -68.259200 38.180300 -11.406500 24.328600 0.000019 0.000005 6.143080 18.744500 -18.517200 22.291600 -0.000001 0.000005 11.935100 5.192130 2.916310 12.994500 -0.242716 -4.980390 88.542600 8.669180 -80.419200 -5.348130 -0.000001 -0.000004 -54.640800 34.354900 -17.171000 -24.328900 0.000322 -0.000009 1.717510 2.871420 -30.966700 -22.291500 -0.000108 -0.000004 14.232100 5.439530 -4.244280 -2.192480 -6.469440 -0.000000 179.818000 -9.749750 -6.775260 39.081100 -0.000007 -0.000012 0.052481 -0.063386 39.622600 40.985400 -0.000006 -0.000013 7.475830 -0.972270 -76.124100 11.754300 -0.000000 0.000003 -0.048661 -0.060055 -16.632200 -2.192510 6.469440 -0.000001 177.141000 2.349510 169.876000 -39.081100 -0.002282 -0.040193 0.033212 -0.014168 64.753800 -40.985400 0.000008 0.000006 5.386250 -2.587660 -51.337400 -11.754300 -0.000006 -0.000006 -0.025772 -0.197386 -24.650200
0.000000 0.000000 0.000000 0.000000 0.000000 -0.000000 138.090000 90.106800 15.312100 86.632600 5.637380 0.665374 15.735700 0.000005 -0.000001 80.502900 84.513200 -80.770900 8.984550 -0.406207 -0.000000 3.054310 -1.797730 -0.487566 16.377300 -0.000001 -0.000001 -2.034110 -8.188790 0.305137 6.456720 -0.000001 -0.000000 -6.305910 -9.894440 -0.828352 12.994200 -0.242716 4.980390 -91.317100 4.485050 -73.617300 5.348090 -0.000007 -0.000001 -65.022600 42.619300 -17.520800 24.328600 0.000019 0.000005 8.046660 18.687800 -23.806200 22.291600 -0.000001 0.000005 11.912900 5.213340 2.381780 12.994500 -0.242716 -4.980390 88.514200 8.617200 -80.178600 -5.348130 -0.000001 -0.000004 -59.735300 34.556200 -12.160000 -24.328900 0.000322 -0.000009 2.860590 6.282300 -24.566500 -22.291500 -0.000108 -0.000004 11.901100 5.399870 -2.930720 -2.192480 -6.469440 -0.000000 -179.016000 -9.384860 -4.629220 39.081100 -0.000007 -0.000012 0.037365 -0.050520 36.486400 40.985400 -0.000006 -0.000013 7.424480 1.650510 -73.529900 11.754300 -0.000000 0.000003 -0.004721 -0.058749 -18.967000 -2.192510 6.469440 -0.000001 179.640000 3.198300 166.395000 -39.081100 -0.002282 -0.040193 0.015306 -0.006504 61.774800 -40.985400 0.000008 0.000006 7.880230 -5.690800 -55.224700 -11.754300 -0.000006 -0.000006 -0.023605 -0.186495 -24.200100
0.000000 0.000000 0.000000 0.000000 0.000000 -0.000000 138.272000 90.832700 17.765800 86.405700 8.026510 -0.432078 15.735700 0.000005 -0.000001 74.628100 84.656300 -74.627500 8.984550 -0.406207 -0.000000 2.541920 -2.830720 0.064067 16.377300 -0.000001 -0.000001 -2.331170 -8.309710 -0.073986 6.456720 -0.000001 -0.000000 -6.403050 -9.500390 -1.792370 12.994200 -0.242716 4.980390 -91.042300 3.764750 -74.513000 5.348090 -0.000007 -0.000001 -61.101100 45.153000 -23.815200 24.328600 0.000019 0.000005 10.122900 18.346500 -29.562700 22.291600 -0.000001 0.000005 11.839300 5.246670 1.520460 12.994500 -0.242716 -4.980390 88.437600 8.638510 -79.707600 -5.348130 -0.000001 -0.000004 -65.155000 32.090300 -6.595880 -24.328900 0.000322 -0.000009 2.790140 8.248750 -18.769200 -22.291500 -0.000108 -0.000004 11.605500 5.370050 -1.989190 -2.192480 -6.469440 -0.000000 -178.182000 -8.766520 -3.304910 39.081100 -0.000007 -0.000012 0.028608 -0.042426 33.990700 40.985400 -0.000006 -0.000013 7.545740 3.818150 -71.032100 11.754300 -0.000000 0.000003 -0.013250 -0.126510 -21.735900 -2.192510 6.469440 -0.000001 -178.206000 3.503210 162.484000 -39.081100 -0.002282 -0.040193 0.008538 -0.003426 57.227600 -40.985400 0.000008 0.000006 8.014900 -6.903280 -57.914100 -11.754300 -0.000006 -0.000006 -0.023324 -0.185048 -24.140300
0.000000 0.000000 0.000000 0.000000 0.000000 -0.000000 138.429000 91.180900 20.267900 86.372900 10.098300 -1.499360 15.735700 0.000005 -0.000001 68.829000 84.713000 -68.624300 8.984550 -0.406207 -0.000000 2.105750 -3.826340 0.479444 16.377300 -0.000001 -0.000001 -2.646750 -8.339070 -0.202106 6.456720 -0.000001 -0.000000 -6.593550 -9.070970 -2.060930 12.994200 -0.242716 4.980390 -90.810200 3.040740 -75.073300 5.348090 -0.000007 -0.000001 -56.888900 46.025300 -29.909600 24.328600 0.000019 0.000005 11.434400 16.600700 -35.298200 22.291600 -0.000001 0.000005 11.982600 5.265710 1.013890 12.994500 -0.242716 -4.980390 88.360400 8.596510 -79.159100 -5.348130 -0.000001 -0.000004 -69.716300 27.548200 -1.506870 -24.328900 0.000322 -0.000009 2.105980 8.481360 -14.006000 -22.291500 -0.000108 -0.000004 12.547700 5.341680 -1.131300 -2.192480 -6.469440 -0.000000 -177.510000 -7.951250 -2.220850 39.081100 -0.000007 -0.000012 0.021576 -0.034208 32.240900 40.985400 -0.000006 -0.000013 7.226910 5.594670 -69.309500 11.754300 -0.000000 0.000003 -0.023253 -0.184693 -24.129500 -2.192510 6.469440 -0.000001 -176.403000 3.510970 158.927000 -39.081100 -0.002282 -0.040193 0.009831 -0.005256 51.420400 -40.985400 0.000008 0.000006 7.645080 -5.629610 -60.116800 -11.754300 -0.000006 -0.000006 -0.024814 -0.192628 -24.453500
